<svg xmlns="http://www.w3.org/2000/svg" viewBox="0 0 400 480" width="400" height="480">
  <defs>
    <linearGradient id="goldGrad" x1="0%" y1="0%" x2="100%" y2="100%">
      <stop offset="0%" stop-color="#E2B74B"/>
      <stop offset="35%" stop-color="#D4A843"/>
      <stop offset="65%" stop-color="#C9993A"/>
      <stop offset="100%" stop-color="#B8860B"/>
    </linearGradient>
  </defs>
  <g fill="url(#goldGrad)" transform="translate(50, 10) scale(0.78)">
    <!-- Ear -->
    <path d="M230,32 C240,8 265,0 280,15 C290,28 278,55 262,65 C255,58 242,48 230,32Z"/>
    <!-- Top of head -->
    <path d="M195,60 C210,42 235,30 260,50 C250,62 238,72 222,78 C210,70 200,65 195,60Z"/>
    <!-- Forehead to nose bridge -->
    <path d="M215,75 C230,68 255,72 270,85 C280,95 285,110 282,125 C276,118 265,108 248,100 C235,94 222,85 215,75Z"/>
    <!-- Upper mane sweep -->
    <path d="M178,75 C165,55 140,40 115,50 C90,62 78,90 82,115 C88,100 100,82 125,72 C148,64 168,68 178,75Z"/>
    <!-- Eye area -->
    <path d="M252,98 C258,94 266,96 270,103 C272,108 268,112 262,112 C256,112 250,106 252,98Z"/>
    <!-- Snout / nose -->
    <path d="M278,128 C295,135 310,148 318,165 C322,175 318,185 308,188 C300,190 292,185 288,178 C284,168 278,155 270,142 C272,136 275,132 278,128Z"/>
    <!-- Lower jaw / mouth -->
    <path d="M268,148 C260,160 252,170 245,175 C255,178 268,176 280,170 C290,164 295,158 292,150 C285,148 275,148 268,148Z"/>
    <!-- Chin -->
    <path d="M242,178 C238,188 230,195 218,198 C228,200 242,198 255,190 C262,185 265,180 260,175 C254,176 248,178 242,178Z"/>
    <!-- Main mane - outer sweep 1 -->
    <path d="M82,118 C70,140 62,170 68,200 C72,220 82,235 95,245 C85,225 80,200 85,175 C90,152 100,135 115,125 C100,122 88,118 82,118Z"/>
    <!-- Main mane - sweep 2 -->
    <path d="M115,128 C100,148 88,175 92,210 C95,235 108,258 128,272 C115,252 108,228 110,200 C112,175 122,155 138,140 C128,134 120,130 115,128Z"/>
    <!-- Main mane - sweep 3 -->
    <path d="M140,145 C125,165 115,195 120,230 C124,258 138,282 160,300 C148,280 140,255 142,228 C144,200 155,178 172,162 C162,155 150,148 140,145Z"/>
    <!-- Main mane - inner sweep 4 -->
    <path d="M175,168 C158,190 148,220 155,255 C160,280 172,302 192,318 C180,298 174,275 176,248 C178,222 190,200 208,185 C198,178 185,172 175,168Z"/>
    <!-- Neck / lower mane flow -->
    <path d="M210,195 C195,218 188,248 195,280 C200,305 215,328 238,345 C222,325 215,300 218,272 C220,248 232,228 250,215 C240,205 225,198 210,195Z"/>
    <!-- Bottom mane tail curl -->
    <path d="M195,320 C185,340 180,365 185,390 C188,408 198,425 215,438 C205,422 200,405 202,385 C204,365 212,348 225,335 C215,328 205,322 195,320Z"/>
    <!-- Lowest tail curve -->
    <path d="M218,440 C210,455 208,472 215,488 C220,498 230,505 242,500 C248,496 250,488 245,480 C240,472 232,462 225,452 C222,448 220,444 218,440Z"/>
    <!-- Cheek detail -->
    <path d="M220,135 C230,128 245,130 255,140 C248,148 238,152 228,150 C222,148 220,142 220,135Z"/>
  </g>
</svg>
